0
SECTION
2
HEADER
9
$INSUNITS
70
4
9
$ACADVER
1
AC1014
9
$HANDSEED
5
FFFF
0
ENDSEC
0
SECTION
2
TABLES
0
TABLE
2
VPORT
5
8
100
AcDbSymbolTable
0
ENDTAB
0
TABLE
2
LTYPE
5
5
100
AcDbSymbolTable
0
LTYPE
5
14
100
AcDbSymbolTableRecord
100
AcDbLinetypeTableRecord
2
BYBLOCK
70
0
0
LTYPE
5
15
100
AcDbSymbolTableRecord
100
AcDbLinetypeTableRecord
2
BYLAYER
70
0
0
LTYPE
5
16
100
AcDbSymbolTableRecord
100
AcDbLinetypeTableRecord
2
DASHED
70
0
3
Dashed __ __ __ __ __ __ __ __ __ __ __ __ __ _
72
65
73
2
40
0.75
49
0.5
74
0
49
-0.25
74
0
0
ENDTAB
0
TABLE
2
LAYER
5
2
100
AcDbSymbolTable
70
3
0
LAYER
5
50
100
AcDbSymbolTableRecord
100
AcDbLayerTableRecord
2
1
70
0
62
7
6
DASHED
0
LAYER
5
51
100
AcDbSymbolTableRecord
100
AcDbLayerTableRecord
2
0
70
0
62
7
6
CONTINUOUS
0
ENDTAB
0
TABLE
2
STYLE
5
3
100
AcDbSymbolTable
70
1
0
STYLE
5
11
100
AcDbSymbolTableRecord
100
AcDbTextStyleTableRecord
2
STANDARD
70
0
0
ENDTAB
0
TABLE
2
VIEW
5
6
100
AcDbSymbolTable
70
0
0
ENDTAB
0
TABLE
2
UCS
5
7
100
AcDbSymbolTable
70
0
0
ENDTAB
0
TABLE
2
APPID
5
9
100
AcDbSymbolTable
70
2
0
APPID
5
12
100
AcDbSymbolTableRecord
100
AcDbRegAppTableRecord
2
ACAD
70
0
0
ENDTAB
0
TABLE
2
DIMSTYLE
5
A
100
AcDbSymbolTable
70
1
0
ENDTAB
0
TABLE
2
BLOCK_RECORD
5
1
100
AcDbSymbolTable
70
1
0
BLOCK_RECORD
5
1F
100
AcDbSymbolTableRecord
100
AcDbBlockTableRecord
2
*MODEL_SPACE
0
BLOCK_RECORD
5
1B
100
AcDbSymbolTableRecord
100
AcDbBlockTableRecord
2
*PAPER_SPACE
0
ENDTAB
0
ENDSEC
0
SECTION
2
BLOCKS
0
BLOCK
5
20
100
AcDbEntity
100
AcDbBlockBegin
2
*MODEL_SPACE
0
ENDBLK
5
21
100
AcDbEntity
100
AcDbBlockEnd
0
BLOCK
5
1C
100
AcDbEntity
100
AcDbBlockBegin
2
*PAPER_SPACE
0
ENDBLK
5
1D
100
AcDbEntity
100
AcDbBlockEnd
0
ENDSEC
0
SECTION
2
ENTITIES
0
LWPOLYLINE
5
100
100
AcDbEntity
8
0
100
AcDbPolyline
90
8
70
1
43
0.0
10
-238.30000000000007
20
44.5
42
0.41421356237308898
10
-241.30000000000001
20
41.5
10
-241.30000000000001
20
-41.5
42
0.41421356237308982
10
-238.30000000000007
20
-44.500000000000028
10
238.30000000000007
20
-44.5
42
0.41421356237308898
10
241.30000000000001
20
-41.5
10
241.30000000000001
20
41.5
42
0.41421356237309853
10
238.30000000000001
20
44.499999999999972
0
LWPOLYLINE
5
101
100
AcDbEntity
8
0
100
AcDbPolyline
90
8
70
1
43
0.0
10
-52.185714285714226
20
-33.500000000000071
10
-52.185714285714226
20
33.499999999999943
42
-0.41421356237309509
10
-51.185714285714226
20
34.499999999999943
10
-5.1857142857142158
20
34.499999999999943
42
-0.4142135623730937
10
-4.1857142857142202
20
33.499999999999943
10
-4.1857142857142184
20
-33.500000000000071
42
-0.41421356237309509
10
-5.1857142857142193
20
-34.500000000000071
10
-51.185714285714226
20
-34.500000000000064
42
-0.41421356237309509
0
CIRCLE
5
102
100
AcDbEntity
8
0
100
AcDbCircle
10
-15.185714285714234
20
-39.5
30
0
40
2.1249999999999991
210
0
220
-0
230
1
0
CIRCLE
5
103
100
AcDbEntity
8
0
100
AcDbCircle
10
-15.185714285714234
20
39.5
30
0
40
2.1249999999999991
210
0
220
-0
230
1
0
CIRCLE
5
104
100
AcDbEntity
8
0
100
AcDbCircle
10
41.185714285714354
20
39.5
30
0
40
2.1249999999999991
210
0
220
-0
230
1
0
CIRCLE
5
105
100
AcDbEntity
8
0
100
AcDbCircle
10
41.185714285714354
20
-39.5
30
0
40
2.1249999999999991
210
0
220
-0
230
1
0
CIRCLE
5
106
100
AcDbEntity
8
0
100
AcDbCircle
10
-184.30000000000001
20
-39.5
30
0
40
2.1249999999999858
210
0
220
-0
230
1
0
CIRCLE
5
107
100
AcDbEntity
8
0
100
AcDbCircle
10
-210.30000000000001
20
39.5
30
0
40
2.1249999999999858
210
0
220
-0
230
1
0
LWPOLYLINE
5
108
100
AcDbEntity
8
0
100
AcDbPolyline
90
8
70
1
43
0.0
10
-164.92857142857136
20
-33.500000000000071
10
-164.92857142857136
20
33.499999999999943
42
-0.41421356237309509
10
-163.92857142857136
20
34.499999999999943
10
-117.92857142857136
20
34.499999999999943
42
-0.41421356237309509
10
-116.92857142857136
20
33.499999999999943
10
-116.92857142857137
20
-33.500000000000071
42
-0.41421356237309509
10
-117.92857142857137
20
-34.500000000000071
10
-163.92857142857136
20
-34.500000000000085
42
-0.41421356237309509
0
CIRCLE
5
109
100
AcDbEntity
8
0
100
AcDbCircle
10
184.30000000000007
20
-39.5
30
0
40
2.1249999999999858
210
0
220
-0
230
1
0
LWPOLYLINE
5
110
100
AcDbEntity
8
0
100
AcDbPolyline
90
8
70
1
43
0.0
10
220.30000000000007
20
-34.500000000000064
10
174.3000000000001
20
-34.500000000000085
42
-0.41421356237309509
10
173.3000000000001
20
-33.500000000000071
10
173.3000000000001
20
33.499999999999943
42
-0.41421356237309509
10
174.3000000000001
20
34.499999999999943
10
220.30000000000007
20
34.499999999999957
42
-0.41421356237309509
10
221.3000000000001
20
33.499999999999943
10
221.3000000000001
20
-33.500000000000071
42
-0.41421356237309509
0
CIRCLE
5
111
100
AcDbEntity
8
0
100
AcDbCircle
10
127.92857142857147
20
-39.5
30
0
40
2.1250000000000036
210
0
220
-0
230
1
0
CIRCLE
5
112
100
AcDbEntity
8
0
100
AcDbCircle
10
210.30000000000007
20
39.5
30
0
40
2.1249999999999858
210
0
220
-0
230
1
0
LWPOLYLINE
5
113
100
AcDbEntity
8
0
100
AcDbPolyline
90
8
70
1
43
0.0
10
4.1857142857143614
20
-33.500000000000071
10
4.1857142857143605
20
33.499999999999943
42
-0.41421356237309509
10
5.1857142857143614
20
34.499999999999943
10
51.185714285714369
20
34.499999999999943
42
-0.41421356237309509
10
52.185714285714369
20
33.499999999999943
10
52.185714285714369
20
-33.500000000000071
42
-0.41421356237309509
10
51.185714285714369
20
-34.500000000000071
10
5.1857142857143579
20
-34.500000000000071
42
-0.4142135623730937
0
CIRCLE
5
114
100
AcDbEntity
8
0
100
AcDbCircle
10
184.30000000000007
20
39.5
30
0
40
2.1249999999999858
210
0
220
-0
230
1
0
CIRCLE
5
115
100
AcDbEntity
8
0
100
AcDbCircle
10
210.30000000000007
20
-39.5
30
0
40
2.1249999999999858
210
0
220
-0
230
1
0
CIRCLE
5
116
100
AcDbEntity
8
0
100
AcDbCircle
10
153.9285714285715
20
-39.5
30
0
40
2.1250000000000036
210
0
220
-0
230
1
0
LWPOLYLINE
5
117
100
AcDbEntity
8
0
100
AcDbPolyline
90
4
70
1
43
0.0
10
234.29999999999441
20
34.774999999997952
42
0.99999999999999989
10
234.30000000000578
20
41.525000000002038
10
228.3000000000001
20
41.524999999999991
42
0.99999999999999989
10
228.3000000000001
20
34.774999999999999
0
LWPOLYLINE
5
118
100
AcDbEntity
8
0
100
AcDbPolyline
90
4
70
1
43
0.0
10
-234.30000000000013
20
-34.775000000000091
42
0.99999999999999989
10
-234.30000000000013
20
-41.525000000000091
10
-228.30000000000013
20
-41.525000000000077
42
0.99999999999999989
10
-228.30000000000013
20
-34.77500000000007
0
LWPOLYLINE
5
119
100
AcDbEntity
8
0
100
AcDbPolyline
90
4
70
1
43
0.0
10
-228.3000000000001
20
34.774999999999928
42
0.99999999999999989
10
-228.3000000000001
20
41.524999999999928
10
-234.3000000000001
20
41.524999999999935
42
0.99999999999999989
10
-234.3000000000001
20
34.774999999999935
0
LWPOLYLINE
5
120
100
AcDbEntity
8
0
100
AcDbPolyline
90
4
70
1
43
0.0
10
234.3000000000001
20
-41.525000000001185
42
0.99999999999999989
10
234.3000000000001
20
-34.774999999998826
10
228.3000000000001
20
-34.775000000000006
42
0.99999999999999989
10
228.3000000000001
20
-41.524999999999999
0
CIRCLE
5
121
100
AcDbEntity
8
0
100
AcDbCircle
10
-153.92857142857139
20
-39.5
30
0
40
2.1250000000000036
210
0
220
-0
230
1
0
CIRCLE
5
122
100
AcDbEntity
8
0
100
AcDbCircle
10
-184.30000000000001
20
39.5
30
0
40
2.1249999999999858
210
0
220
-0
230
1
0
LWPOLYLINE
5
123
100
AcDbEntity
8
0
100
AcDbPolyline
90
8
70
1
43
0.0
10
-221.29999999999998
20
-33.500000000000071
10
-221.29999999999998
20
33.499999999999943
42
-0.41421356237309509
10
-220.29999999999998
20
34.499999999999943
10
-174.30000000000001
20
34.499999999999957
42
-0.41421356237309509
10
-173.29999999999998
20
33.499999999999943
10
-173.29999999999998
20
-33.500000000000071
42
-0.41421356237309509
10
-174.30000000000001
20
-34.500000000000071
10
-220.29999999999998
20
-34.500000000000085
42
-0.41421356237309509
0
CIRCLE
5
124
100
AcDbEntity
8
0
100
AcDbCircle
10
-210.30000000000001
20
-39.5
30
0
40
2.1249999999999858
210
0
220
-0
230
1
0
CIRCLE
5
125
100
AcDbEntity
8
0
100
AcDbCircle
10
-127.92857142857137
20
-39.5
30
0
40
2.1250000000000036
210
0
220
-0
230
1
0
CIRCLE
5
126
100
AcDbEntity
8
0
100
AcDbCircle
10
-127.92857142857137
20
39.5
30
0
40
2.1250000000000036
210
0
220
-0
230
1
0
CIRCLE
5
127
100
AcDbEntity
8
0
100
AcDbCircle
10
-153.92857142857139
20
39.5
30
0
40
2.1250000000000036
210
0
220
-0
230
1
0
LWPOLYLINE
5
128
100
AcDbEntity
8
0
100
AcDbPolyline
90
8
70
1
43
0.0
10
60.557142857142935
20
-33.500000000000071
10
60.557142857142935
20
33.499999999999943
42
-0.41421356237309509
10
61.557142857142928
20
34.499999999999943
10
107.55714285714294
20
34.499999999999943
42
-0.41421356237309509
10
108.55714285714294
20
33.499999999999943
10
108.55714285714294
20
-33.500000000000071
42
-0.41421356237309509
10
107.55714285714294
20
-34.500000000000071
10
61.557142857142928
20
-34.500000000000064
42
-0.41421356237309509
0
CIRCLE
5
129
100
AcDbEntity
8
0
100
AcDbCircle
10
-97.557142857142836
20
39.5
30
0
40
2.1250000000000036
210
0
220
-0
230
1
0
CIRCLE
5
130
100
AcDbEntity
8
0
100
AcDbCircle
10
71.557142857142907
20
39.5
30
0
40
2.1250000000000036
210
0
220
-0
230
1
0
CIRCLE
5
131
100
AcDbEntity
8
0
100
AcDbCircle
10
-41.185714285714248
20
-39.5
30
0
40
2.1250000000000036
210
0
220
-0
230
1
0
CIRCLE
5
132
100
AcDbEntity
8
0
100
AcDbCircle
10
-71.557142857142821
20
-39.5
30
0
40
2.1250000000000036
210
0
220
-0
230
1
0
CIRCLE
5
133
100
AcDbEntity
8
0
100
AcDbCircle
10
97.557142857142921
20
39.5
30
0
40
2.1250000000000036
210
0
220
-0
230
1
0
LWPOLYLINE
5
134
100
AcDbEntity
8
0
100
AcDbPolyline
90
8
70
1
43
0.0
10
-108.55714285714282
20
-33.500000000000071
10
-108.55714285714279
20
33.499999999999943
42
-0.41421356237309509
10
-107.55714285714279
20
34.499999999999943
10
-61.557142857142807
20
34.499999999999943
42
-0.41421356237309509
10
-60.557142857142807
20
33.499999999999943
10
-60.557142857142807
20
-33.500000000000071
42
-0.41421356237309509
10
-61.557142857142807
20
-34.500000000000071
10
-107.55714285714282
20
-34.500000000000064
42
-0.41421356237309509
0
CIRCLE
5
135
100
AcDbEntity
8
0
100
AcDbCircle
10
-97.557142857142836
20
-39.5
30
0
40
2.1250000000000036
210
0
220
-0
230
1
0
CIRCLE
5
136
100
AcDbEntity
8
0
100
AcDbCircle
10
-71.557142857142821
20
39.5
30
0
40
2.1250000000000036
210
0
220
-0
230
1
0
CIRCLE
5
137
100
AcDbEntity
8
0
100
AcDbCircle
10
15.18571428571434
20
-39.5
30
0
40
2.1249999999999991
210
0
220
-0
230
1
0
CIRCLE
5
138
100
AcDbEntity
8
0
100
AcDbCircle
10
-41.185714285714248
20
39.5
30
0
40
2.1250000000000036
210
0
220
-0
230
1
0
CIRCLE
5
139
100
AcDbEntity
8
0
100
AcDbCircle
10
15.18571428571434
20
39.5
30
0
40
2.1249999999999991
210
0
220
-0
230
1
0
LWPOLYLINE
5
140
100
AcDbEntity
8
0
100
AcDbPolyline
90
8
70
1
43
0.0
10
116.9285714285715
20
-33.500000000000071
10
116.92857142857152
20
33.499999999999943
42
-0.41421356237309509
10
117.92857142857152
20
34.499999999999943
10
163.9285714285715
20
34.499999999999957
42
-0.41421356237309509
10
164.9285714285715
20
33.499999999999943
10
164.9285714285715
20
-33.500000000000071
42
-0.41421356237309509
10
163.9285714285715
20
-34.500000000000071
10
117.9285714285715
20
-34.500000000000064
42
-0.41421356237309509
0
CIRCLE
5
141
100
AcDbEntity
8
0
100
AcDbCircle
10
153.9285714285715
20
39.5
30
0
40
2.1250000000000036
210
0
220
-0
230
1
0
CIRCLE
5
142
100
AcDbEntity
8
0
100
AcDbCircle
10
97.557142857142921
20
-39.5
30
0
40
2.1250000000000036
210
0
220
-0
230
1
0
CIRCLE
5
143
100
AcDbEntity
8
0
100
AcDbCircle
10
127.92857142857147
20
39.5
30
0
40
2.1250000000000036
210
0
220
-0
230
1
0
CIRCLE
5
144
100
AcDbEntity
8
0
100
AcDbCircle
10
71.557142857142907
20
-39.5
30
0
40
2.1250000000000036
210
0
220
-0
230
1
0
ENDSEC
0
SECTION
2
OBJECTS
0
DICTIONARY
5
C
100
AcDbDictionary
3
ACAD_GROUP
350
D
3
ACAD_MLINESTYLE
350
17
0
DICTIONARY
5
D
100
AcDbDictionary
0
DICTIONARY
5
1A
330
C
100
AcDbDictionary
0
DICTIONARY
5
17
100
AcDbDictionary
0
ENDSEC
0
EOF
